<svg width="147" height="16" viewBox="0 0 147 16" fill="none" xmlns="http://www.w3.org/2000/svg">
<path d="M0.74 8.02C0.74 6.66 1.05333 5.44 1.68 4.36C2.32 3.28 3.18 2.44 4.26 1.84C5.35333 1.22667 6.54667 0.919999 7.84 0.919999C9.32 0.919999 10.6333 1.28667 11.78 2.02C12.94 2.74 13.78 3.76667 14.3 5.1H11.56C11.2 4.36667 10.7 3.82 10.06 3.46C9.42 3.1 8.68 2.92 7.84 2.92C6.92 2.92 6.1 3.12667 5.38 3.54C4.66 3.95333 4.09333 4.54667 3.68 5.32C3.28 6.09333 3.08 6.99333 3.08 8.02C3.08 9.04667 3.28 9.94667 3.68 10.72C4.09333 11.4933 4.66 12.0933 5.38 12.52C6.1 12.9333 6.92 13.14 7.84 13.14C8.68 13.14 9.42 12.96 10.06 12.6C10.7 12.24 11.2 11.6933 11.56 10.96H14.3C13.78 12.2933 12.94 13.32 11.78 14.04C10.6333 14.76 9.32 15.12 7.84 15.12C6.53333 15.12 5.34 14.82 4.26 14.22C3.18 13.6067 2.32 12.76 1.68 11.68C1.05333 10.6 0.74 9.38 0.74 8.02ZM16.2088 9.44C16.2088 8.33333 16.4354 7.35333 16.8888 6.5C17.3554 5.64667 17.9821 4.98667 18.7688 4.52C19.5688 4.04 20.4488 3.8 21.4088 3.8C22.2754 3.8 23.0288 3.97333 23.6688 4.32C24.3221 4.65333 24.8421 5.07333 25.2288 5.58V3.98H27.5288V15H25.2288V13.36C24.8421 13.88 24.3154 14.3133 23.6488 14.66C22.9821 15.0067 22.2221 15.18 21.3688 15.18C20.4221 15.18 19.5554 14.94 18.7688 14.46C17.9821 13.9667 17.3554 13.2867 16.8888 12.42C16.4354 11.54 16.2088 10.5467 16.2088 9.44ZM25.2288 9.48C25.2288 8.72 25.0688 8.06 24.7488 7.5C24.4421 6.94 24.0354 6.51333 23.5288 6.22C23.0221 5.92667 22.4754 5.78 21.8888 5.78C21.3021 5.78 20.7554 5.92667 20.2488 6.22C19.7421 6.5 19.3288 6.92 19.0088 7.48C18.7021 8.02667 18.5488 8.68 18.5488 9.44C18.5488 10.2 18.7021 10.8667 19.0088 11.44C19.3288 12.0133 19.7421 12.4533 20.2488 12.76C20.7688 13.0533 21.3154 13.2 21.8888 13.2C22.4754 13.2 23.0221 13.0533 23.5288 12.76C24.0354 12.4667 24.4421 12.04 24.7488 11.48C25.0688 10.9067 25.2288 10.24 25.2288 9.48ZM40.6234 9.22C40.6234 9.63333 40.5968 10.0067 40.5434 10.34H32.1234C32.1901 11.22 32.5168 11.9267 33.1034 12.46C33.6901 12.9933 34.4101 13.26 35.2634 13.26C36.4901 13.26 37.3568 12.7467 37.8634 11.72H40.3234C39.9901 12.7333 39.3834 13.5667 38.5034 14.22C37.6368 14.86 36.5568 15.18 35.2634 15.18C34.2101 15.18 33.2634 14.9467 32.4234 14.48C31.5968 14 30.9434 13.3333 30.4634 12.48C29.9968 11.6133 29.7634 10.6133 29.7634 9.48C29.7634 8.34667 29.9901 7.35333 30.4434 6.5C30.9101 5.63333 31.5568 4.96667 32.3834 4.5C33.2234 4.03333 34.1834 3.8 35.2634 3.8C36.3034 3.8 37.2301 4.02667 38.0434 4.48C38.8568 4.93333 39.4901 5.57333 39.9434 6.4C40.3968 7.21333 40.6234 8.15333 40.6234 9.22ZM38.2434 8.5C38.2301 7.66 37.9301 6.98667 37.3434 6.48C36.7568 5.97333 36.0301 5.72 35.1634 5.72C34.3768 5.72 33.7034 5.97333 33.1434 6.48C32.5834 6.97333 32.2501 7.64667 32.1434 8.5H38.2434ZM46.8672 15.18C46.0005 15.18 45.2205 15.0267 44.5272 14.72C43.8472 14.4 43.3072 13.9733 42.9072 13.44C42.5072 12.8933 42.2939 12.2867 42.2672 11.62H44.6272C44.6672 12.0867 44.8872 12.48 45.2872 12.8C45.7005 13.1067 46.2139 13.26 46.8272 13.26C47.4672 13.26 47.9605 13.14 48.3072 12.9C48.6672 12.6467 48.8472 12.3267 48.8472 11.94C48.8472 11.5267 48.6472 11.22 48.2472 11.02C47.8605 10.82 47.2405 10.6 46.3872 10.36C45.5605 10.1333 44.8872 9.91333 44.3672 9.7C43.8472 9.48667 43.3939 9.16 43.0072 8.72C42.6339 8.28 42.4472 7.7 42.4472 6.98C42.4472 6.39333 42.6205 5.86 42.9672 5.38C43.3139 4.88667 43.8072 4.5 44.4472 4.22C45.1005 3.94 45.8472 3.8 46.6872 3.8C47.9405 3.8 48.9472 4.12 49.7072 4.76C50.4805 5.38667 50.8939 6.24667 50.9472 7.34H48.6672C48.6272 6.84667 48.4272 6.45333 48.0672 6.16C47.7072 5.86667 47.2205 5.72 46.6072 5.72C46.0072 5.72 45.5472 5.83333 45.2272 6.06C44.9072 6.28667 44.7472 6.58667 44.7472 6.96C44.7472 7.25333 44.8539 7.5 45.0672 7.7C45.2805 7.9 45.5405 8.06 45.8472 8.18C46.1539 8.28667 46.6072 8.42667 47.2072 8.6C48.0072 8.81333 48.6605 9.03333 49.1672 9.26C49.6872 9.47333 50.1339 9.79333 50.5072 10.22C50.8805 10.6467 51.0739 11.2133 51.0872 11.92C51.0872 12.5467 50.9139 13.1067 50.5672 13.6C50.2205 14.0933 49.7272 14.48 49.0872 14.76C48.4605 15.04 47.7205 15.18 46.8672 15.18ZM52.7908 9.44C52.7908 8.33333 53.0174 7.35333 53.4708 6.5C53.9374 5.64667 54.5641 4.98667 55.3508 4.52C56.1508 4.04 57.0308 3.8 57.9908 3.8C58.8574 3.8 59.6108 3.97333 60.2508 4.32C60.9041 4.65333 61.4241 5.07333 61.8108 5.58V3.98H64.1108V15H61.8108V13.36C61.4241 13.88 60.8974 14.3133 60.2308 14.66C59.5641 15.0067 58.8041 15.18 57.9508 15.18C57.0041 15.18 56.1374 14.94 55.3508 14.46C54.5641 13.9667 53.9374 13.2867 53.4708 12.42C53.0174 11.54 52.7908 10.5467 52.7908 9.44ZM61.8108 9.48C61.8108 8.72 61.6508 8.06 61.3308 7.5C61.0241 6.94 60.6174 6.51333 60.1108 6.22C59.6041 5.92667 59.0574 5.78 58.4708 5.78C57.8841 5.78 57.3374 5.92667 56.8308 6.22C56.3241 6.5 55.9108 6.92 55.5908 7.48C55.2841 8.02667 55.1308 8.68 55.1308 9.44C55.1308 10.2 55.2841 10.8667 55.5908 11.44C55.9108 12.0133 56.3241 12.4533 56.8308 12.76C57.3508 13.0533 57.8974 13.2 58.4708 13.2C59.0574 13.2 59.6041 13.0533 60.1108 12.76C60.6174 12.4667 61.0241 12.04 61.3308 11.48C61.6508 10.9067 61.8108 10.24 61.8108 9.48ZM69.3855 5.58C69.7188 5.02 70.1588 4.58667 70.7055 4.28C71.2655 3.96 71.9255 3.8 72.6855 3.8V6.16H72.1055C71.2121 6.16 70.5321 6.38667 70.0655 6.84C69.6121 7.29333 69.3855 8.08 69.3855 9.2V15H67.1055V3.98H69.3855V5.58ZM89.6966 5.24C89.6966 5.94667 89.5299 6.61333 89.1966 7.24C88.8632 7.86667 88.3299 8.38 87.5966 8.78C86.8632 9.16667 85.9232 9.36 84.7766 9.36H82.2566V15H79.9766V1.1H84.7766C85.8432 1.1 86.7432 1.28667 87.4766 1.66C88.2232 2.02 88.7766 2.51333 89.1366 3.14C89.5099 3.76667 89.6966 4.46667 89.6966 5.24ZM84.7766 7.5C85.6432 7.5 86.2899 7.30667 86.7166 6.92C87.1432 6.52 87.3566 5.96 87.3566 5.24C87.3566 3.72 86.4966 2.96 84.7766 2.96H82.2566V7.5H84.7766ZM91.1111 9.44C91.1111 8.33333 91.3378 7.35333 91.7911 6.5C92.2578 5.64667 92.8844 4.98667 93.6711 4.52C94.4711 4.04 95.3511 3.8 96.3111 3.8C97.1778 3.8 97.9311 3.97333 98.5711 4.32C99.2244 4.65333 99.7444 5.07333 100.131 5.58V3.98H102.431V15H100.131V13.36C99.7444 13.88 99.2178 14.3133 98.5511 14.66C97.8844 15.0067 97.1244 15.18 96.2711 15.18C95.3244 15.18 94.4578 14.94 93.6711 14.46C92.8844 13.9667 92.2578 13.2867 91.7911 12.42C91.3378 11.54 91.1111 10.5467 91.1111 9.44ZM100.131 9.48C100.131 8.72 99.9711 8.06 99.6511 7.5C99.3444 6.94 98.9378 6.51333 98.4311 6.22C97.9244 5.92667 97.3778 5.78 96.7911 5.78C96.2044 5.78 95.6578 5.92667 95.1511 6.22C94.6444 6.5 94.2311 6.92 93.9111 7.48C93.6044 8.02667 93.4511 8.68 93.4511 9.44C93.4511 10.2 93.6044 10.8667 93.9111 11.44C94.2311 12.0133 94.6444 12.4533 95.1511 12.76C95.6711 13.0533 96.2178 13.2 96.7911 13.2C97.3778 13.2 97.9244 13.0533 98.4311 12.76C98.9378 12.4667 99.3444 12.04 99.6511 11.48C99.9711 10.9067 100.131 10.24 100.131 9.48ZM107.706 0.2V15H105.426V0.2H107.706ZM109.939 9.44C109.939 8.33333 110.166 7.35333 110.619 6.5C111.086 5.64667 111.713 4.98667 112.499 4.52C113.299 4.04 114.179 3.8 115.139 3.8C116.006 3.8 116.759 3.97333 117.399 4.32C118.053 4.65333 118.573 5.07333 118.959 5.58V3.98H121.259V15H118.959V13.36C118.573 13.88 118.046 14.3133 117.379 14.66C116.713 15.0067 115.953 15.18 115.099 15.18C114.153 15.18 113.286 14.94 112.499 14.46C111.713 13.9667 111.086 13.2867 110.619 12.42C110.166 11.54 109.939 10.5467 109.939 9.44ZM118.959 9.48C118.959 8.72 118.799 8.06 118.479 7.5C118.173 6.94 117.766 6.51333 117.259 6.22C116.753 5.92667 116.206 5.78 115.619 5.78C115.033 5.78 114.486 5.92667 113.979 6.22C113.473 6.5 113.059 6.92 112.739 7.48C112.433 8.02667 112.279 8.68 112.279 9.44C112.279 10.2 112.433 10.8667 112.739 11.44C113.059 12.0133 113.473 12.4533 113.979 12.76C114.499 13.0533 115.046 13.2 115.619 13.2C116.206 13.2 116.753 13.0533 117.259 12.76C117.766 12.4667 118.173 12.04 118.479 11.48C118.799 10.9067 118.959 10.24 118.959 9.48ZM123.494 9.48C123.494 8.34667 123.721 7.35333 124.174 6.5C124.641 5.63333 125.281 4.96667 126.094 4.5C126.907 4.03333 127.841 3.8 128.894 3.8C130.227 3.8 131.327 4.12 132.194 4.76C133.074 5.38667 133.667 6.28667 133.974 7.46H131.514C131.314 6.91333 130.994 6.48667 130.554 6.18C130.114 5.87333 129.561 5.72 128.894 5.72C127.961 5.72 127.214 6.05333 126.654 6.72C126.107 7.37333 125.834 8.29333 125.834 9.48C125.834 10.6667 126.107 11.5933 126.654 12.26C127.214 12.9267 127.961 13.26 128.894 13.26C130.214 13.26 131.087 12.68 131.514 11.52H133.974C133.654 12.64 133.054 13.5333 132.174 14.2C131.294 14.8533 130.201 15.18 128.894 15.18C127.841 15.18 126.907 14.9467 126.094 14.48C125.281 14 124.641 13.3333 124.174 12.48C123.721 11.6133 123.494 10.6133 123.494 9.48ZM146.346 9.22C146.346 9.63333 146.319 10.0067 146.266 10.34H137.846C137.913 11.22 138.239 11.9267 138.826 12.46C139.413 12.9933 140.133 13.26 140.986 13.26C142.213 13.26 143.079 12.7467 143.586 11.72H146.046C145.713 12.7333 145.106 13.5667 144.226 14.22C143.359 14.86 142.279 15.18 140.986 15.18C139.933 15.18 138.986 14.9467 138.146 14.48C137.319 14 136.666 13.3333 136.186 12.48C135.719 11.6133 135.486 10.6133 135.486 9.48C135.486 8.34667 135.713 7.35333 136.166 6.5C136.633 5.63333 137.279 4.96667 138.106 4.5C138.946 4.03333 139.906 3.8 140.986 3.8C142.026 3.8 142.953 4.02667 143.766 4.48C144.579 4.93333 145.213 5.57333 145.666 6.4C146.119 7.21333 146.346 8.15333 146.346 9.22ZM143.966 8.5C143.953 7.66 143.653 6.98667 143.066 6.48C142.479 5.97333 141.753 5.72 140.886 5.72C140.099 5.72 139.426 5.97333 138.866 6.48C138.306 6.97333 137.973 7.64667 137.866 8.5H143.966Z" fill="#152C5B"/>
</svg>
